<?xml version="1.0" encoding="UTF-8"?>
<svg xmlns="http://www.w3.org/2000/svg" xmlns:xlink="http://www.w3.org/1999/xlink" width="140px" height="112px" viewBox="0 0 140 112" version="1.1">
<g id="surface1">
<path style=" stroke:none;fill-rule:nonzero;fill:rgb(0%,0%,0%);fill-opacity:1;" d="M 8.488281 1.117188 C 6.210938 -0.679688 2.910156 -0.261719 1.117188 2.011719 C -0.679688 4.289062 -0.261719 7.589844 2.011719 9.382812 L 131.511719 110.882812 C 133.789062 112.679688 137.089844 112.261719 138.882812 109.988281 C 140.679688 107.710938 140.261719 104.410156 137.988281 102.617188 L 114.976562 84.589844 C 123.636719 75.710938 129.5 65.757812 132.453125 58.691406 C 133.175781 56.960938 133.175781 55.039062 132.453125 53.308594 C 129.195312 45.5 122.347656 34.125 112.109375 24.632812 C 101.828125 15.050781 87.675781 7 70 7 C 55.082031 7 42.65625 12.753906 32.964844 20.300781 Z M 41.519531 26.992188 C 49.4375 21.371094 58.953125 17.5 70 17.5 C 84.261719 17.5 95.988281 23.976562 104.976562 32.308594 C 113.398438 40.140625 119.21875 49.4375 122.195312 56 C 119.4375 62.125 114.1875 70.613281 106.683594 78.070312 L 94.914062 68.839844 C 96.90625 64.992188 98.023438 60.636719 98.023438 56 C 98.023438 40.535156 85.488281 28 70.023438 28 C 62.976562 28 56.523438 30.601562 51.601562 34.890625 Z M 86.382812 62.167969 L 68.554688 48.191406 C 69.476562 46.332031 70 44.210938 70 42 C 70 40.796875 69.847656 39.617188 69.5625 38.5 C 69.714844 38.5 69.847656 38.5 70 38.5 C 79.667969 38.5 87.5 46.332031 87.5 56 C 87.5 58.164062 87.105469 60.242188 86.382812 62.167969 Z M 88.441406 90.671875 C 82.863281 93.054688 76.714844 94.5 70 94.5 C 55.738281 94.5 44.011719 88.023438 35.023438 79.691406 C 26.601562 71.859375 20.78125 62.5625 17.804688 56 C 19.621094 51.976562 22.507812 46.921875 26.425781 41.824219 L 18.179688 35.328125 C 13.191406 41.824219 9.625 48.300781 7.546875 53.308594 C 6.824219 55.039062 6.824219 56.960938 7.546875 58.691406 C 10.804688 66.5 17.652344 77.875 27.890625 87.367188 C 38.171875 96.949219 52.324219 105 70 105 C 80.457031 105 89.664062 102.179688 97.605469 97.890625 Z M 42 56 C 42 71.464844 54.535156 84 70 84 C 72.910156 84 75.710938 83.5625 78.355469 82.730469 L 66.0625 73.0625 C 60.921875 71.882812 56.632812 68.425781 54.316406 63.808594 L 42.042969 54.140625 C 42 54.753906 41.976562 55.367188 41.976562 56 Z M 42 56 "/>
</g>
</svg>
